PathFileType	4	(X/Y/Z)	Patient4_TMGait_0pt7_01_left_09.trc.trc
DataRate	CameraRate	NumFrames	NumMarkers	Units	OrigDataRate	OrigDataStartFrame	OrigNumFrames
90.322580645161	90.322580645161	5	33	mm	90.322580645161	106	       141
Frame#	Time	Sacral			L.Shoulder			Chest			R.Shoulder			Neck			R.ASIS			L.ASIS			R.Thigh.Superior			R.Thigh.Lateral			R.Thigh.Inferior			R.Patella			L.Thigh.Superior			L.Thigh.Lateral			L.Thigh.Inferior			L.Patella			L.Shank.Superior			L.Shank.Lateral			L.Shank.Inferior			R.Shank.Superior			R.Shank.Lateral			R.Shank.Inferior			R.Heel			R.Midfoot.Superior			R.Midfoot.Lateral			R.Toe			L.Heel			L.Midfoot.Lateral			L.Midfoot.Superior			L.Toe			L.Elbow			L.Wrist			R.Elbow			R.Wrist			
		X1	Y1	Z1	X2	Y2	Z2	X3	Y3	Z3	X4	Y4	Z4	X5	Y5	Z5	X6	Y6	Z6	X7	Y7	Z7	X8	Y8	Z8	X9	Y9	Z9	X10	Y10	Z10	X11	Y11	Z11	X12	Y12	Z12	X13	Y13	Z13	X14	Y14	Z14	X15	Y15	Z15	X16	Y16	Z16	X17	Y17	Z17	X18	Y18	Z18	X19	Y19	Z19	X20	Y20	Z20	X21	Y21	Z21	X22	Y22	Z22	X23	Y23	Z23	X24	Y24	Z24	X25	Y25	Z25	X26	Y26	Z26	X27	Y27	Z27	X28	Y28	Z28	X29	Y29	Z29	X30	Y30	Z30	X31	Y31	Z31	X32	Y32	Z32	X33	Y33	Z33	

106	11.512500000000	811.846472710468	1010.793327514230	519.032506502464	983.322468846775	1429.121576478705	309.527385717034	1104.403558846778	1354.362544491180	456.574080121566	1051.210947096306	1436.908489023808	638.416895240851	1012.720144360883	1492.427582447609	462.050255878400	1047.580615659535	943.460217502531	614.585349934531	1007.956043211924	962.565854587404	341.946615887171	1072.687943476199	738.505748581997	587.259209485399	984.998461006597	635.866621443976	650.970037107020	1052.933179254232	577.971547505301	568.545099790369	1045.319278498024	491.543536953865	574.576557714673	1103.727193265777	798.213958941473	377.224044002721	1073.657880562061	668.140057199077	297.705666707207	1182.466866427694	615.254167344114	359.274375917848	1206.645634590466	529.248790998760	350.855585115159	1153.856733717723	454.335742911420	340.702807128611	1025.044947708452	382.401490382568	292.554509029591	1045.745912793998	251.671294056893	342.180799373045	1016.532291197178	404.261742179759	582.413459823750	942.154900441828	302.026876469739	642.424642525174	984.061964714104	206.222321318002	579.706979572253	848.181248537765	42.664661075902	544.187560786679	1017.064600746292	96.810015974877	588.968690954985	927.272700655007	36.813673729325	623.248870863708	1135.673288058868	44.383507134249	625.010671040508	878.774251286558	141.226965144604	382.669782090655	941.185278419349	116.139025388999	297.241962156286	1042.337542533971	147.246470315278	315.739755853337	1142.395343827927	59.374969127947	276.422350980620	923.188886439333	1074.129157282787	219.053242381127	1102.497926101398	886.157815826743	228.918649020609	1024.088485040730	1090.908679075763	768.150594290099	1203.236391917513	909.182874563601	718.766202435457	
107	11.523571428571	811.301909973202	1011.155387758541	520.188557834935	982.341660044460	1428.744554437718	309.557582385777	1104.359388355383	1353.987015793708	455.747191103923	1052.761899680228	1436.692740213644	638.027399092872	1013.000896747818	1492.246522418083	461.923024716853	1047.333513367729	943.032044265835	613.915236324794	1005.940404704815	962.502372294000	341.523844061635	1070.006013340470	737.600123775932	585.985711948218	981.846931030553	635.662557255822	650.815826954356	1048.372804032388	577.085226953618	567.919818978780	1039.904119654359	490.894898632519	574.158825681941	1102.778902612710	800.365726059665	377.379946123092	1074.412205620906	669.882866194252	297.670006980403	1183.179556607260	618.112522035750	359.852480633851	1209.205460114946	533.573088751387	351.217353788118	1160.028784064311	457.517294368164	340.649539853066	1036.211929148630	378.428244550349	291.177573499085	1064.083788602378	248.835555137848	340.975945750151	1010.651715311852	403.815908342044	582.163091610522	935.903983766148	301.954542528094	642.351726674267	977.080128069205	205.956311886083	579.506112190090	840.369589641364	42.692700210562	544.243527180966	1009.290585378349	96.790279501596	588.950078448430	919.470972527527	36.803544562408	623.297161385511	1127.867242119239	44.276870268233	625.040528580348	903.679710570636	128.689648506954	379.996961653010	968.238705150823	107.259459169717	295.233634939219	1067.178939756930	144.194478691815	314.596379204455	1172.545291800440	62.291307845901	276.521419327539	917.801829182065	1073.627987076836	221.410150587464	1080.620781579326	870.452136460500	230.632827814036	1036.515675334529	1090.113168735873	767.446538148398	1228.658486205361	925.053522295028	712.324836117646	
108	11.534642857143	810.853954717137	1011.395518748947	521.083402145738	981.539224762377	1428.245444492548	309.464869261208	1104.368471316526	1353.532032413345	454.913841547468	1054.201296335414	1436.427820768429	637.567053899917	1013.266110575052	1491.985116818112	461.708684603008	1047.082673214866	942.547972404224	613.216649168761	1004.171997644286	962.353707618160	340.985592410269	1067.369844333917	736.663197323681	584.729093647276	978.712553222738	635.407968392671	650.628685071331	1043.891563470756	576.179923818890	567.328125374309	1034.579473166290	490.212030443905	573.780863262399	1101.680828052796	801.912542985922	377.406639315796	1074.733157480492	671.114247414761	297.459064076844	1183.188980423772	620.171699374006	360.457309483440	1210.938587347255	537.277037365850	351.653174038221	1165.419839900745	460.345660489168	340.707536780173	1047.248112883423	374.315108051839	289.610334999893	1082.091529339774	246.322985817343	339.861905970721	1004.838264758671	403.331342554365	581.925460225942	929.676197177338	301.864661969983	642.260227082454	970.107449832043	205.674198106408	579.314468392583	832.559090558972	42.717305359410	544.305144010380	1001.510689446324	96.765415103790	588.929154137392	911.663012372044	36.791935619513	623.336774875421	1120.060197280202	44.173165310823	625.070051644279	928.778252623852	116.838176264477	377.023216530708	995.594995556539	99.101536233372	293.232755108441	1091.847331326934	141.776525821005	313.740416713518	1202.274341475039	66.131244609270	277.498070712986	912.800464805970	1073.115628584949	223.412408009342	1057.866565921846	856.386334916267	232.312502988219	1049.355816740793	1089.633165043993	766.346561138202	1253.044601537624	942.431291024979	705.550195747637	
109	11.545714285714	810.514231259269	1011.509555759887	521.698297923650	980.926055589693	1427.628631839341	309.231668878890	1104.433997252325	1352.997153092573	454.063754118125	1055.525589093626	1436.119889318756	637.021347691959	1013.522584703659	1491.642849195466	461.390009547513	1046.843413496123	942.022213666182	612.507450243633	1002.712878688499	962.112535793536	340.345919776262	1064.807182056925	735.693767400358	583.558399216356	975.588595883878	635.105743221392	650.415308517894	1039.510572675989	575.256287509642	566.796174617416	1029.362264543259	489.491759287798	573.451980582120	1100.471425173135	802.830097777060	377.314950923710	1074.667172755105	671.823217901886	297.044784536854	1182.572413687755	621.426010001580	361.042250852079	1211.916205797172	540.335842128775	352.135150616657	1170.044987392547	462.793908752060	340.853954327447	1058.065100606393	370.164329846809	287.888166193356	1099.560755798584	244.198852360688	338.866186630253	999.109289099516	402.804532723444	581.699741168226	923.476015575579	301.760223705370	642.150295817724	963.149247966969	205.375368150568	579.135656129885	824.751902130110	42.736902707884	544.374422536773	993.727621799258	96.735603661718	588.907424461105	903.850055332178	36.782458385535	623.372437069471	1112.254368229183	44.071840182169	625.101923065026	953.750084819162	105.858295206961	373.841638457577	1022.898626532980	91.819222122406	291.310053125498	1116.026060055590	140.072536389920	313.192588855275	1231.195054395400	70.911586373958	279.329555008846	908.111144484501	1072.608539557860	225.052055052695	1034.503364929286	844.177599134532	233.919891918487	1062.590316498149	1089.525573808017	764.826765513078	1276.206761068328	961.119378595586	698.509231674618	
110	11.556785714286	810.294789295205	1011.494635523941	522.019040304219	980.507527126156	1426.904086911733	308.844339834714	1104.556488680297	1352.388165684308	453.187186967047	1056.727821341799	1435.775249211952	636.375602124407	1013.774647754193	1491.220777040666	460.951755444976	1046.634705632631	941.464519509379	611.796800724530	1001.608081408323	961.767593581413	339.616342066719	1062.345578666365	734.689015574270	582.529867359787	972.473350240876	634.759602819457	650.177331449371	1035.249461088864	574.313193531612	566.339074275649	1024.267671937791	488.730704720873	573.172808139478	1099.193827929425	803.114770209681	377.114492910991	1074.269017994161	672.012365421237	296.411740175553	1181.428015938799	621.898263885182	361.555004378888	1212.222745239686	542.739914457961	352.630310564052	1173.931774387662	464.834363495378	341.052523986948	1068.535355931590	366.058640904147	286.067670399948	1116.269983425952	242.481165685798	338.007730689989	993.480615563834	402.234546044533	581.482387886500	917.308698124561	301.644892476551	642.020008022210	956.210304916369	205.059890139090	578.971477385611	816.949967008080	42.751892210289	544.451819098920	985.944311714966	96.701578942491	588.885731657217	896.033976561628	36.779660644609	623.410530143039	1104.451415300931	43.972959299227	625.138254898032	978.239461021760	95.868868641033	370.583782977372	1049.729654703844	85.494606040446	289.539614719201	1139.369430706820	139.093282695725	312.945843432173	1258.896613302419	76.554906701626	281.900823072421	903.650163888957	1072.135849753541	226.329070286838	1010.837507328723	833.966260729680	235.416952789566	1076.168214913705	1089.849004785933	762.870703386645	1297.984401830663	980.894603948961	691.276996250047	
